<svg version="1.1" xmlns="http://www.w3.org/2000/svg" style="display: block;" viewBox="0 0 2048 2048" width="1024" height="1024" preserveAspectRatio="none">
<defs>
	<linearGradient id="Gradient1" gradientUnits="userSpaceOnUse" x1="375.465" y1="973.482" x2="464.01" y2="889.902">
		<stop class="stop0" offset="0" stop-opacity="1" stop-color="rgb(43,12,171)"/>
		<stop class="stop1" offset="1" stop-opacity="1" stop-color="rgb(93,17,255)"/>
	</linearGradient>
	<linearGradient id="Gradient2" gradientUnits="userSpaceOnUse" x1="619.388" y1="1059.93" x2="542.097" y2="1144.27">
		<stop class="stop0" offset="0" stop-opacity="1" stop-color="rgb(29,7,143)"/>
		<stop class="stop1" offset="1" stop-opacity="1" stop-color="rgb(111,29,253)"/>
	</linearGradient>
</defs>
<path transform="translate(0,0)" fill="rgb(255,255,255)" d="M 0 0 L 2048 0 L 2048 2048 L 0 2048 L 0 0 z"/>
<path transform="translate(0,0)" fill="rgb(118,49,253)" d="M 569.054 879.452 L 634.503 818.338 C 648.009 805.741 663.763 790.338 677.796 778.654 C 678.804 834.286 677.724 893.035 677.429 948.769 L 677.046 1119.54 C 670.102 1127.7 657.685 1139.56 649.709 1147.58 C 632.677 1164.76 615.537 1181.84 598.288 1198.8 C 560.594 1162.22 520.253 1124.38 483.529 1087.06 C 508.167 1064.09 532.932 1041.26 557.824 1018.56 C 561.28 1015.05 565.015 1011.8 568.686 1008.5 C 569.518 995.095 568.998 976.731 569.005 963.026 L 569.054 879.452 z"/>
<path transform="translate(0,0)" fill="url(#Gradient2)" d="M 568.686 1008.5 C 579.573 1020.31 597.636 1037.39 606.848 1048.88 C 619.218 1059.44 670.364 1116.14 677.046 1119.54 C 670.102 1127.7 657.685 1139.56 649.709 1147.58 C 632.677 1164.76 615.537 1181.84 598.288 1198.8 C 560.594 1162.22 520.253 1124.38 483.529 1087.06 C 508.167 1064.09 532.932 1041.26 557.824 1018.56 C 561.28 1015.05 565.015 1011.8 568.686 1008.5 z"/>
<path transform="translate(0,0)" fill="rgb(28,4,112)" d="M 568.686 1008.5 C 579.573 1020.31 597.636 1037.39 606.848 1048.88 C 600.759 1046.61 585.877 1028.53 578.734 1022.33 C 567.359 1025.81 571.588 1015.98 557.824 1018.56 C 561.28 1015.05 565.015 1011.8 568.686 1008.5 z"/>
<path transform="translate(0,0)" fill="url(#Gradient1)" d="M 369.129 805.438 L 501.708 931.353 C 518.684 947.611 537.255 964.613 553.754 981.14 L 473.439 1056.86 C 447.472 1034.15 420.416 1005.77 394.983 984.38 C 371.013 960.374 343.395 937.705 319.14 913.677 C 309.343 903.973 297.514 892.119 287.066 883.527 L 369.129 805.438 z"/>
<path transform="translate(0,0)" fill="rgb(118,49,253)" d="M 287.066 883.527 C 297.514 892.119 309.343 903.973 319.14 913.677 C 343.395 937.705 371.013 960.374 394.983 984.38 C 393.278 989.916 394.832 1119.22 394.833 1133.44 C 374.562 1153.5 350.79 1173.77 329.842 1193.58 C 320.38 1202.52 296.645 1225 287.029 1231.75 C 286.124 1220.14 286.691 1202.58 286.718 1190.64 L 286.835 1117.61 L 287.066 883.527 z"/>
<path transform="translate(0,0)" fill="rgb(28,4,112)" d="M 794.098 915.443 C 797.106 915.263 800.119 915.163 803.132 915.143 C 823.511 914.95 826.759 922.976 840.608 935.926 C 849.098 943.866 857.388 952.232 865.727 960.348 L 963.051 1055.12 C 963.726 1008.98 963.152 961.486 963.146 915.259 L 994.033 915.31 L 994.086 1040.39 C 994.103 1048.73 994.773 1090.75 993.32 1097.2 C 990.414 1099.51 990.945 1098.8 986.751 1099.48 L 985.154 1099.56 C 978.723 1099.82 967.21 1099.71 962.343 1095.35 C 914.301 1052.38 869.351 1003.58 821.775 960.28 C 820.406 1004.04 821.412 1055.52 821.666 1099.52 C 811.387 1099.72 800.615 1099.6 790.297 1099.62 C 788.991 1040 790.963 979.284 790.378 919.553 C 790.356 917.27 792.491 916.458 794.098 915.443 z"/>
<path transform="translate(0,0)" fill="rgb(28,4,112)" d="M 1071.18 915.17 L 1102.68 915.302 C 1103.11 957.596 1101.45 1000.55 1103.22 1042.87 C 1104.8 1080.54 1166.71 1067.51 1190.45 1070 C 1198.79 1070.87 1220.98 1066.88 1226.54 1061.27 C 1238.75 1048.92 1235.38 1016.19 1235.36 999.244 L 1235.37 915.306 L 1266.7 915.366 L 1266.71 945.904 L 1266.83 1008.1 C 1266.87 1031.19 1270.33 1061.11 1253.09 1079.06 C 1230.04 1103.05 1194.73 1099.34 1164.28 1099.73 C 1129.45 1100.18 1082.67 1098.97 1073.21 1056.25 C 1069.83 1039.62 1071.13 1017.05 1071.14 999.647 L 1071.18 915.17 z"/>
<path transform="translate(0,0)" fill="rgb(28,4,112)" d="M 1527.35 915.104 C 1539.66 915.444 1551.97 915.474 1564.28 915.194 C 1559.98 922.551 1555.76 930.427 1551.59 937.903 C 1521.72 988.947 1494.64 1042.07 1464.34 1092.74 C 1457.37 1104.38 1425.77 1102.62 1418.05 1087.08 C 1412.42 1075.77 1404.4 1062.84 1398.24 1051.56 L 1365.95 993.121 C 1359.81 982.054 1326.73 924.378 1323.92 915.446 C 1335.53 915.103 1348.24 915.309 1359.95 915.27 C 1383.82 960.269 1409.17 1004.64 1433.28 1049.53 C 1436.52 1055.57 1439.72 1061.4 1443.57 1067.09 C 1453.99 1049.51 1464.84 1028.5 1474.83 1010.38 L 1527.35 915.104 z"/>
<path transform="translate(0,0)" fill="rgb(28,4,112)" d="M 1661.99 915.215 C 1672.17 914.42 1682.74 914.685 1688.3 924.494 C 1698.95 943.292 1708.77 963.086 1718.67 982.289 L 1779.48 1099.47 L 1743.98 1099.68 C 1738.04 1086.15 1727.76 1067.34 1720.93 1053.78 L 1671.92 956.05 C 1670.19 952.727 1671.46 953.653 1668.7 952.239 C 1665.89 954.446 1600.15 1085.44 1593.52 1099.63 C 1582.1 1099.81 1569.82 1099.51 1558.33 1099.44 C 1589.98 1040.82 1618.56 980.152 1651.36 922.178 C 1653.24 918.846 1658.69 916.607 1661.99 915.215 z"/>
<path transform="translate(0,0)" fill="rgb(118,49,253)" d="M 1234.95 1170.98 C 1238.56 1170.89 1241.19 1170.45 1244.41 1171.97 C 1248.47 1178.82 1269.25 1223.75 1270.24 1229.95 C 1267.77 1232.75 1269.23 1232.03 1266.11 1232.79 C 1261.59 1230.95 1257.79 1222.35 1254.46 1218.59 C 1252.52 1216.39 1249.44 1217.02 1246.25 1216.96 L 1224.63 1216.81 C 1222.96 1220.49 1219.56 1229.4 1216.6 1231.07 C 1213.36 1230.83 1210.84 1231.23 1208.58 1229.68 C 1211.17 1220.76 1230.13 1181.44 1234.95 1170.98 z"/>
<path transform="translate(0,0)" fill="rgb(255,255,255)" d="M 1239.32 1182.59 C 1242.82 1185.87 1249.01 1203.16 1251.09 1208.6 L 1240.13 1208.74 L 1227.94 1208.96 C 1231.68 1199.22 1234.91 1191.92 1239.32 1182.59 z"/>
<path transform="translate(0,0)" fill="rgb(118,49,253)" d="M 1001.29 1198.16 L 1100.83 1197.97 C 1113.79 1197.96 1138.3 1197.13 1149.98 1198.39 L 1150.93 1199.44 C 1148.95 1200.77 1147.85 1201.52 1145.35 1201.52 C 1120.84 1201.53 1096.02 1201.31 1071.51 1201.24 L 916.642 1200.82 C 904.302 1201.4 889.206 1200.95 876.653 1200.86 C 875.524 1200.51 864.81 1200.32 861.3 1199.78 C 863.482 1198.89 898.928 1198.52 904.02 1198.16 C 935.389 1198.05 970.196 1197.19 1001.29 1198.16 z"/>
<path transform="translate(0,0)" fill="rgb(160,126,252)" d="M 904.02 1198.16 C 935.389 1198.05 970.196 1197.19 1001.29 1198.16 C 978.412 1199.58 932.952 1200.19 909.837 1199.27 L 909.917 1199.23 C 913.813 1200.96 913.075 1199.48 916.642 1200.82 C 904.302 1201.4 889.206 1200.95 876.653 1200.86 C 875.524 1200.51 864.81 1200.32 861.3 1199.78 C 863.482 1198.89 898.928 1198.52 904.02 1198.16 z"/>
<path transform="translate(0,0)" fill="rgb(118,49,253)" d="M 1636.41 1200.84 L 1476.54 1201.34 C 1467.71 1201.37 1427.14 1202.6 1421.03 1200.99 L 1420.85 1199.42 C 1421.54 1198.94 1422.24 1198.46 1422.93 1197.97 C 1457.74 1197.7 1541.85 1198.06 1571.91 1198.16 C 1594.17 1199.78 1624.54 1199.27 1647.46 1199.49 C 1643.31 1199.71 1640.39 1199.64 1636.41 1200.84 z"/>
<path transform="translate(0,0)" fill="rgb(118,49,253)" d="M 1338.93 1170.98 C 1342.89 1170.88 1343.7 1170.75 1347.48 1171.61 C 1350.15 1175.48 1348.77 1222.87 1348.71 1231.01 C 1345.72 1231.21 1341.5 1231.86 1339.3 1229.76 C 1337.84 1217.43 1338.86 1184.79 1338.93 1170.98 z"/>
<path transform="translate(0,0)" fill="rgb(160,126,252)" d="M 1672.7 1198.16 C 1684.48 1197.64 1772.99 1198.24 1775.73 1199.82 L 1775.84 1199.29 L 1776.26 1199.29 C 1771.26 1201.07 1700.89 1201.54 1692.97 1200.87 C 1674.37 1200.99 1654.94 1201.4 1636.41 1200.84 C 1640.39 1199.64 1643.31 1199.71 1647.46 1199.49 C 1624.54 1199.27 1594.17 1199.78 1571.91 1198.16 C 1603.94 1197.15 1640.36 1197.98 1672.7 1198.16 z"/>
<path transform="translate(0,0)" fill="rgb(202,192,246)" d="M 1672.7 1198.16 C 1684.48 1197.64 1772.99 1198.24 1775.73 1199.82 L 1775.84 1199.29 L 1776.26 1199.29 C 1771.26 1201.07 1700.89 1201.54 1692.97 1200.87 C 1701.57 1199.77 1712.54 1199.8 1721.37 1199.58 C 1705.16 1198.81 1688.87 1199.27 1672.7 1198.16 z"/>
<path transform="translate(0,0)" fill="rgb(202,192,246)" d="M 876.653 1200.86 C 860.703 1203.1 810.027 1200.83 792.973 1199.5 C 826.907 1198.38 870.379 1196.82 904.02 1198.16 C 898.928 1198.52 863.482 1198.89 861.3 1199.78 C 864.81 1200.32 875.524 1200.51 876.653 1200.86 z"/>
</svg>